<?xml version="1.0" standalone="no"?><!DOCTYPE svg PUBLIC "-//W3C//DTD SVG 1.1//EN" "http://www.w3.org/Graphics/SVG/1.1/DTD/svg11.dtd"><svg t="1525865248476" class="icon" style="" viewBox="0 0 1024 1024" version="1.1" xmlns="http://www.w3.org/2000/svg" p-id="2666" xmlns:xlink="http://www.w3.org/1999/xlink" width="32" height="32"><defs><style type="text/css"></style></defs><path d="M180.7 289.1v-61c0-18.4 14.9-33.2 33.2-33.2h190.6v-33.2c0-18.4 14.9-33.2 33.2-33.2h150.7c18.4 0 33.2 14.9 33.2 33.2v33.2h190.6c18.4 0 33.2 14.9 33.2 33.2v61H180.7zM752.6 861c0 18.4-14.9 33.2-33.2 33.2H307c-18.4 0-33.2-14.9-33.2-33.2l-66.5-548.6h611.8L752.6 861zM420.1 438.7c0-18.4-14.9-33.2-33.2-33.2-18.4 0-33.2 14.9-33.2 33.2v332.5c0 18.4 14.9 33.2 33.2 33.2 18.4 0 33.2-14.9 33.2-33.2V438.7z m124.1 0c0-18.4-14.9-33.2-33.2-33.2-18.4 0-33.2 14.9-33.2 33.2v332.5c0 18.4 14.9 33.2 33.2 33.2 18.4 0 33.2-14.9 33.2-33.2V438.7z m126.4 0c0-18.4-14.9-33.2-33.2-33.2-18.4 0-33.2 14.9-33.2 33.2v332.5c0 18.4 14.9 33.2 33.2 33.2 18.4 0 33.2-14.9 33.2-33.2V438.7z" fill="#00c8e7" p-id="2667"></path></svg>