<?xml version="1.0" standalone="no"?><!DOCTYPE svg PUBLIC "-//W3C//DTD SVG 1.1//EN" "http://www.w3.org/Graphics/SVG/1.1/DTD/svg11.dtd"><svg t="1527252549151" class="icon" style="" viewBox="0 0 1024 1024" version="1.1" xmlns="http://www.w3.org/2000/svg" p-id="2361" xmlns:xlink="http://www.w3.org/1999/xlink" width="32" height="32"><defs><style type="text/css"></style></defs><path d="M349.08672 384.74752a28.09344 28.09344 0 0 0 28.05248-28.05248c0-43.03872 34.96448-78.11584 78.0032-78.11584a28.02176 28.02176 0 0 0 28.05248-28.05248c0-15.34464-12.59008-28.05248-28.05248-28.05248-74.01984 0-134.2208 60.25728-134.2208 134.21568 0.11264 15.46752 12.70272 28.0576 28.16512 28.0576z m0 262.93248c15.4624 0 28.05248-12.70272 28.05248-28.05248V435.57888a28.0576 28.0576 0 0 0-56.10496 0v184.04864a28.09344 28.09344 0 0 0 28.05248 28.05248z m573.00992 147.63008h-32.6144v-53.4016c0-18.27328-14.8736-33.152-33.32096-33.152h-19.85536V329.17504C836.30592 161.81248 700.03712 25.6 532.67456 25.6h-41.344c-167.36256 0-303.5136 136.21248-303.5136 303.57504v379.4688h-20.09088c-18.3296 0-33.19808 14.8736-33.19808 33.14688v53.41184h-32.68096a39.51616 39.51616 0 0 0-39.58272 39.70048v123.74016c0 22.07744 17.80224 39.76192 39.58272 39.76192h820.2496c21.84704 0 39.64416-17.68448 39.64416-39.76192V835.0208a39.61344 39.61344 0 0 0-39.64416-39.71072zM491.33056 81.8176h41.344c136.4992 0 247.41376 111.03232 247.41376 247.35744v366.29504H244.02944V329.17504c0-136.44288 110.91456-247.35744 247.30112-247.35744zM183.30624 747.53024h650.83392v41.92768H183.30624v-41.92768z m726.3744 198.16448H114.31936v-97.38752h795.36128v97.38752z" fill="#5a8bff" p-id="2362"></path></svg>