<?xml version="1.0" standalone="no"?><!DOCTYPE svg PUBLIC "-//W3C//DTD SVG 1.1//EN" "http://www.w3.org/Graphics/SVG/1.1/DTD/svg11.dtd"><svg t="1525865226551" class="icon" style="" viewBox="0 0 1024 1024" version="1.1" xmlns="http://www.w3.org/2000/svg" p-id="2220" xmlns:xlink="http://www.w3.org/1999/xlink" width="32" height="32"><defs><style type="text/css"></style></defs><path d="M875.52 679.936c0 36.864-30.208 67.072-67.072 67.072H189.44c-36.864 0-67.072-30.208-67.072-67.072 0-36.864 30.208-67.072 67.072-67.072h10.752V382.976c0-146.944 134.656-266.752 299.008-266.752 164.352 0 299.008 120.32 299.008 266.752v229.376h10.752c36.352 0 66.56 30.208 66.56 67.584z m-367.616 244.224c65.536 0 119.296-48.128 128.512-111.104H379.904c8.704 62.976 62.976 111.104 128 111.104z" p-id="2221" fill="#00c8e7"></path></svg>